<svg width="20" height="20" viewBox="0 0 20 20" fill="none" xmlns="http://www.w3.org/2000/svg">
<g clip-path="url(#clip0_930_23013)">
<path d="M7.41665 5.00016C7.41665 3.57516 8.57498 2.41683 9.99998 2.41683C11.425 2.41683 12.5833 3.57516 12.5833 5.00016V6.66683H8.69998L16.6667 14.6335V8.3335C16.6667 7.41683 15.9167 6.66683 15 6.66683H14.1667V5.00016C14.1667 2.70016 12.3 0.833496 9.99998 0.833496C8.06665 0.833496 6.44998 2.1585 5.98332 3.95016L7.41665 5.3835V5.00016ZM4.26665 4.59183C3.94165 4.26683 3.41665 4.26683 3.09165 4.59183C2.76665 4.91683 2.76665 5.44183 3.09165 5.76683L4.19998 6.87516C3.68332 7.16683 3.33332 7.7085 3.33332 8.3335V16.6668C3.33332 17.5835 4.08332 18.3335 4.99998 18.3335H15.65L15.8917 18.5752C16.2167 18.9002 16.7417 18.9002 17.0667 18.5752C17.3917 18.2502 17.3917 17.7252 17.0667 17.4002L4.26665 4.59183Z" fill="#0277BD"/>
</g>
<defs>
<clipPath id="clip0_930_23013">
<rect width="20" height="20" fill="white"/>
</clipPath>
</defs>
</svg>
