<svg width="20" height="20" viewBox="0 0 20 20" fill="none" xmlns="http://www.w3.org/2000/svg">
<path d="M18.1818 0H1.81818C0.909091 0 0 1.11111 0 2.22222V17.7778C0 19 0.818182 20 1.81818 20H18.1818C19.0909 20 20 18.8889 20 17.7778V2.22222C20 1.11111 19.0909 0 18.1818 0ZM4.20909 14.6556L6.47273 11.1C6.65455 10.8222 7 10.8111 7.18182 11.0889L9.09091 13.9L11.9091 9.46667C12.0909 9.17778 12.4545 9.17778 12.6364 9.47778L15.8273 14.6778C16.0545 15.0444 15.8364 15.5667 15.4636 15.5667H4.56364C4.19091 15.5556 3.97273 15.0222 4.20909 14.6556Z" fill="#0277BD"/>
</svg>
