<svg width="12" height="16" viewBox="0 0 12 16" fill="none" xmlns="http://www.w3.org/2000/svg">
<path d="M5.82805 10.1052C7.22593 10.1052 8.35434 8.97675 8.35434 7.57887V2.52629C8.35434 1.12841 7.22593 0 5.82805 0C4.43017 0 3.30176 1.12841 3.30176 2.52629V7.57887C3.30176 8.97675 4.43017 10.1052 5.82805 10.1052ZM4.98596 2.52629C4.98596 2.06314 5.3649 1.68419 5.82805 1.68419C6.29121 1.68419 6.67015 2.06314 6.67015 2.52629V7.57887C6.67015 8.04202 6.29121 8.42097 5.82805 8.42097C5.3649 8.42097 4.98596 8.04202 4.98596 7.57887V2.52629ZM10.8048 7.57887C10.3922 7.57887 10.047 7.88202 9.97959 8.29465C9.63433 10.2736 7.90803 11.7894 5.82805 11.7894C3.74807 11.7894 2.02178 10.2736 1.67652 8.29465C1.60915 7.88202 1.26389 7.57887 0.851263 7.57887C0.337584 7.57887 -0.0666225 8.0336 0.00916617 8.53886C0.421794 11.0651 2.44282 13.0441 4.98596 13.4062V15.1577C4.98596 15.6209 5.3649 15.9998 5.82805 15.9998C6.29121 15.9998 6.67015 15.6209 6.67015 15.1577V13.4062C9.21328 13.0441 11.2343 11.0651 11.6469 8.53886C11.7312 8.0336 11.3185 7.57887 10.8048 7.57887Z" fill="white"/>
</svg>
