<svg width="19" height="19" viewBox="0 0 19 19" fill="none" xmlns="http://www.w3.org/2000/svg">
<path opacity="0.4" d="M8.53005 0.991537H6.8068C2.4987 0.991537 0.775459 2.71478 0.775459 7.02288V12.1926C0.775459 16.5007 2.4987 18.224 6.8068 18.224H11.9765C16.2846 18.224 18.0079 16.5007 18.0079 12.1926V10.4694" stroke="#FCFCFC" stroke-width="1.5" stroke-linecap="round" stroke-linejoin="round"/>
<path d="M12.8727 1.87078L6.08311 8.66035C5.82462 8.91883 5.56613 9.42719 5.51444 9.79769L5.14394 12.3912C5.00608 13.3303 5.66953 13.9852 6.6087 13.8559L9.20217 13.4854C9.56405 13.4337 10.0724 13.1752 10.3395 12.9168L17.1291 6.12718C18.3009 4.95538 18.8523 3.59402 17.1291 1.87078C15.4058 0.147535 14.0445 0.698972 12.8727 1.87078Z" stroke="#FCFCFC" stroke-width="1.5" stroke-miterlimit="10" stroke-linecap="round" stroke-linejoin="round"/>
<path opacity="0.4" d="M11.8991 2.84436C12.4764 4.90363 14.0876 6.51486 16.1555 7.10077" stroke="#FCFCFC" stroke-width="1.5" stroke-miterlimit="10" stroke-linecap="round" stroke-linejoin="round"/>
</svg>
