<svg width="10" height="13" viewBox="0 0 10 13" fill="none" xmlns="http://www.w3.org/2000/svg">
<path d="M4.94281 0C5.50463 0 6.04344 0.216259 6.44071 0.601202C6.83798 0.986145 7.06116 1.50824 7.06116 2.05263V6.15789C7.06116 6.70229 6.83798 7.22438 6.44071 7.60932C6.04344 7.99427 5.50463 8.21053 4.94281 8.21053C4.38099 8.21053 3.84218 7.99427 3.44491 7.60932C3.04765 7.22438 2.82446 6.70229 2.82446 6.15789V2.05263C2.82446 1.50824 3.04765 0.986145 3.44491 0.601202C3.84218 0.216259 4.38099 0 4.94281 0ZM9.88563 6.15789C9.88563 8.57316 8.04266 10.5642 5.64893 10.8995V13H4.2367V10.8995C1.84296 10.5642 0 8.57316 0 6.15789H1.41223C1.41223 7.06521 1.7842 7.93537 2.44632 8.57694C3.10843 9.21852 4.00644 9.57895 4.94281 9.57895C5.87918 9.57895 6.7772 9.21852 7.43931 8.57694C8.10142 7.93537 8.47339 7.06521 8.47339 6.15789H9.88563Z" fill="#FCFCFC"/>
</svg>
