<svg width="20" height="20" viewBox="0 0 20 20" fill="none" xmlns="http://www.w3.org/2000/svg">
<g clip-path="url(#clip0_827_22857)">
<path d="M10.0001 1.6665C5.40008 1.6665 1.66675 5.39984 1.66675 9.99984C1.66675 14.5998 5.40008 18.3332 10.0001 18.3332C14.6001 18.3332 18.3334 14.5998 18.3334 9.99984C18.3334 5.39984 14.6001 1.6665 10.0001 1.6665ZM3.33341 9.99984C3.33341 6.3165 6.31675 3.33317 10.0001 3.33317C11.5417 3.33317 12.9584 3.85817 14.0834 4.7415L4.74175 14.0832C3.85841 12.9582 3.33341 11.5415 3.33341 9.99984ZM10.0001 16.6665C8.45842 16.6665 7.04175 16.1415 5.91675 15.2582L15.2584 5.9165C16.1417 7.0415 16.6667 8.45817 16.6667 9.99984C16.6667 13.6832 13.6834 16.6665 10.0001 16.6665Z" fill="#F14751"/>
</g>
<defs>
<clipPath id="clip0_827_22857">
<rect width="20" height="20" fill="white"/>
</clipPath>
</defs>
</svg>
