<svg width="20" height="20" viewBox="0 0 20 20" fill="none" xmlns="http://www.w3.org/2000/svg">
<g clip-path="url(#clip0_827_22691)">
<path d="M9.99175 1.6665C5.39175 1.6665 1.66675 5.39984 1.66675 9.99984C1.66675 14.5998 5.39175 18.3332 9.99175 18.3332C14.6001 18.3332 18.3334 14.5998 18.3334 9.99984C18.3334 5.39984 14.6001 1.6665 9.99175 1.6665ZM7.08342 6.6665C7.77508 6.6665 8.33342 7.22484 8.33342 7.9165C8.33342 8.60817 7.77508 9.1665 7.08342 9.1665C6.39175 9.1665 5.83342 8.60817 5.83342 7.9165C5.83342 7.22484 6.39175 6.6665 7.08342 6.6665ZM13.9251 12.2665C13.1667 13.8915 11.7001 14.9998 10.0001 14.9998C8.30008 14.9998 6.83342 13.8915 6.07508 12.2665C5.94175 11.9915 6.14175 11.6665 6.45008 11.6665H13.5501C13.8584 11.6665 14.0584 11.9915 13.9251 12.2665ZM12.9167 9.1665C12.2251 9.1665 11.6667 8.60817 11.6667 7.9165C11.6667 7.22484 12.2251 6.6665 12.9167 6.6665C13.6084 6.6665 14.1667 7.22484 14.1667 7.9165C14.1667 8.60817 13.6084 9.1665 12.9167 9.1665Z" fill="#0277BD"/>
</g>
<defs>
<clipPath id="clip0_827_22691">
<rect width="20" height="20" fill="white"/>
</clipPath>
</defs>
</svg>
