<svg width="28" height="28" viewBox="0 0 28 28" fill="none" xmlns="http://www.w3.org/2000/svg">
<g clip-path="url(#clip0_827_22693)">
<path d="M13.9819 8.13265L19.0654 15.3926C20.0696 16.8267 19.9134 18.8382 18.5822 19.9748C17.0596 21.2761 14.7818 20.9587 13.6575 19.353L7.7188 10.8717C7.08938 9.97278 7.16263 8.70456 7.99222 7.99074C8.94944 7.16709 10.3762 7.36454 11.0825 8.37324L16.1275 15.5783C16.3918 15.9557 16.2992 16.4807 15.9218 16.7449C15.5444 17.0092 15.0194 16.9166 14.7551 16.5392L10.551 10.535C10.354 10.2537 9.95729 10.1838 9.67595 10.3807C9.39461 10.5777 9.32467 10.9744 9.52166 11.2557L13.6586 17.1639C14.288 18.0628 15.5048 18.4277 16.4593 17.8923C17.5607 17.2745 17.8631 15.8663 17.1568 14.8575L12.1935 7.76918C11.1893 6.33504 9.24571 5.79385 7.72233 6.656C5.97183 7.64652 5.49793 9.89065 6.62225 11.4963L12.5177 19.9159C13.8967 21.8853 16.5725 22.6398 18.6647 21.4509C21.0665 20.076 21.7235 16.998 20.1763 14.7885L15.0112 7.41193C14.8142 7.13059 14.4175 7.06065 14.1362 7.25764C13.8549 7.45464 13.7849 7.85131 13.9819 8.13265Z" fill="#0277BD"/>
</g>
<defs>
<clipPath id="clip0_827_22693">
<rect width="20" height="20" fill="white" transform="translate(11.5314 28) scale(1.00522) rotate(-125)"/>
</clipPath>
</defs>
</svg>
