<svg width="14" height="17" viewBox="0 0 14 17" fill="none" xmlns="http://www.w3.org/2000/svg">
<path d="M6.82594 0C3.05217 0 0 2.73291 0 6.11193C0 9.75289 4.31009 14.7734 6.08484 16.6856C6.47489 17.1047 7.18674 17.1047 7.57679 16.6856C9.34179 14.7734 13.6519 9.75289 13.6519 6.11193C13.6519 2.73291 10.5997 0 6.82594 0ZM6.82594 8.29476C5.48026 8.29476 4.3881 7.31685 4.3881 6.11193C4.3881 4.90701 5.48026 3.9291 6.82594 3.9291C8.17163 3.9291 9.26378 4.90701 9.26378 6.11193C9.26378 7.31685 8.17163 8.29476 6.82594 8.29476Z" fill="#FCFCFC"/>
</svg>
