<svg width="50" height="29" viewBox="0 0 50 29" fill="none" xmlns="http://www.w3.org/2000/svg">
<path d="M21.4062 14.2857C20.434 14.2857 19.6354 13.869 19.0104 13.0357C18.3854 12.2024 18.1597 11.2302 18.3333 10.119L18.9583 5.83333C19.2361 4.12698 19.9396 2.72857 21.0688 1.6381C22.1965 0.546032 23.5069 0 25 0C26.5278 0 27.8563 0.546032 28.9854 1.6381C30.1132 2.72857 30.816 4.12698 31.0938 5.83333L31.7188 10.119C31.8924 11.2302 31.6667 12.2024 31.0417 13.0357C30.4167 13.869 29.6181 14.2857 28.6458 14.2857H21.4062ZM6.45833 16.6071C5.65972 16.6468 4.97431 16.4683 4.40208 16.0714C3.82847 15.6746 3.45486 15.0595 3.28125 14.2262C3.21181 13.869 3.19444 13.5119 3.22917 13.1548C3.26389 12.7976 3.35069 12.4603 3.48958 12.1429C3.48958 12.1825 3.47222 12.1032 3.4375 11.9048C3.36806 11.8254 3.19444 11.3492 2.91667 10.4762C2.84722 10 2.89931 9.54365 3.07292 9.10714C3.24653 8.67063 3.47222 8.29365 3.75 7.97619L3.85417 7.85714C3.92361 7.10317 4.19306 6.46825 4.6625 5.95238C5.13056 5.43651 5.71181 5.17857 6.40625 5.17857C6.51042 5.17857 6.84028 5.25794 7.39583 5.41667L7.55208 5.35714C7.72569 5.15873 7.95139 5.00952 8.22917 4.90952C8.50694 4.81111 8.80208 4.7619 9.11458 4.7619C9.49653 4.7619 9.83542 4.83095 10.1312 4.96905C10.4257 5.10873 10.6597 5.31746 10.8333 5.59524C10.8681 5.59524 10.8944 5.60556 10.9125 5.62619C10.9292 5.64524 10.9549 5.65476 10.9896 5.65476C11.4757 5.69444 11.9014 5.8627 12.2667 6.15952C12.6306 6.45794 12.8993 6.86508 13.0729 7.38095C13.1424 7.65873 13.1681 7.92698 13.15 8.18571C13.1333 8.44286 13.0903 8.69048 13.0208 8.92857C13.0208 8.96825 13.0382 9.04762 13.0729 9.16667C13.316 9.44444 13.5069 9.75159 13.6458 10.0881C13.7847 10.4262 13.8542 10.7738 13.8542 11.131C13.8542 11.2897 13.75 11.7063 13.5417 12.381C13.5069 12.4603 13.5069 12.5397 13.5417 12.619L13.6458 13.5714C13.6458 14.4048 13.3424 15.119 12.7354 15.7143C12.1271 16.3095 11.3889 16.6071 10.5208 16.6071H6.45833ZM41.6667 16.6667C40.5208 16.6667 39.5396 16.2 38.7229 15.2667C37.9076 14.3349 37.5 13.2143 37.5 11.9048C37.5 11.4286 37.5604 10.9825 37.6812 10.5667C37.8035 10.1492 37.9688 9.74206 38.1771 9.34524L36.7188 7.85714C36.3715 7.53968 36.3111 7.14286 36.5375 6.66667C36.7625 6.19048 37.0833 5.95238 37.5 5.95238H41.6667C42.8125 5.95238 43.7938 6.41825 44.6104 7.35C45.4257 8.28333 45.8333 9.40476 45.8333 10.7143V11.9048C45.8333 13.2143 45.4257 14.3349 44.6104 15.2667C43.7938 16.2 42.8125 16.6667 41.6667 16.6667ZM0 28.5714V24.8214C0 23.0754 0.772917 21.6762 2.31875 20.6238C3.86319 19.573 5.86806 19.0476 8.33333 19.0476C8.78472 19.0476 9.21875 19.0571 9.63542 19.0762C10.0521 19.0968 10.4514 19.1468 10.8333 19.2262C10.3472 20.0198 9.98264 20.873 9.73958 21.7857C9.49653 22.6984 9.375 23.6706 9.375 24.7024V28.5714H0ZM12.5 28.5714V24.7024C12.5 22.123 13.6549 20.0397 15.9646 18.4524C18.2729 16.8651 21.2847 16.0714 25 16.0714C28.75 16.0714 31.7708 16.8651 34.0625 18.4524C36.3542 20.0397 37.5 22.123 37.5 24.7024V28.5714H12.5ZM41.6667 19.0476C44.1667 19.0476 46.1806 19.573 47.7083 20.6238C49.2361 21.6762 50 23.0754 50 24.8214V28.5714H40.625V24.7024C40.625 23.6706 40.5118 22.6984 40.2854 21.7857C40.0604 20.873 39.7222 20.0198 39.2708 19.2262C39.6528 19.1468 40.0438 19.0968 40.4437 19.0762C40.8424 19.0571 41.25 19.0476 41.6667 19.0476Z" fill="white"/>
</svg>
