<svg width="20" height="20" viewBox="0 0 20 20" fill="none" xmlns="http://www.w3.org/2000/svg">
<g clip-path="url(#clip0_827_22694)">
<path d="M2.5 6.66683C2.5 7.12516 2.875 7.50016 3.33333 7.50016C3.79167 7.50016 4.16667 7.12516 4.16667 6.66683V5.00016H5.83333C6.29167 5.00016 6.66667 4.62516 6.66667 4.16683C6.66667 3.7085 6.29167 3.3335 5.83333 3.3335H4.16667V1.66683C4.16667 1.2085 3.79167 0.833496 3.33333 0.833496C2.875 0.833496 2.5 1.2085 2.5 1.66683V3.3335H0.833333C0.375 3.3335 0 3.7085 0 4.16683C0 4.62516 0.375 5.00016 0.833333 5.00016H2.5V6.66683Z" fill="#58A5F0"/>
<path d="M10.8333 14.1665C12.214 14.1665 13.3333 13.0472 13.3333 11.6665C13.3333 10.2858 12.214 9.1665 10.8333 9.1665C9.45254 9.1665 8.33325 10.2858 8.33325 11.6665C8.33325 13.0472 9.45254 14.1665 10.8333 14.1665Z" fill="#58A5F0"/>
<path d="M17.5 5.00016H14.8583L13.825 3.87516C13.5167 3.5335 13.0667 3.3335 12.6 3.3335H7.26667C7.40833 3.5835 7.5 3.8585 7.5 4.16683C7.5 5.0835 6.75 5.8335 5.83333 5.8335H5V6.66683C5 7.5835 4.25 8.3335 3.33333 8.3335C3.025 8.3335 2.75 8.24183 2.5 8.10016V16.6668C2.5 17.5835 3.25 18.3335 4.16667 18.3335H17.5C18.4167 18.3335 19.1667 17.5835 19.1667 16.6668V6.66683C19.1667 5.75016 18.4167 5.00016 17.5 5.00016ZM10.8333 15.8335C8.53333 15.8335 6.66667 13.9668 6.66667 11.6668C6.66667 9.36683 8.53333 7.50016 10.8333 7.50016C13.1333 7.50016 15 9.36683 15 11.6668C15 13.9668 13.1333 15.8335 10.8333 15.8335Z" fill="#0277BD"/>
</g>
<defs>
<clipPath id="clip0_827_22694">
<rect width="20" height="20" fill="white"/>
</clipPath>
</defs>
</svg>
